<svg xmlns="http://www.w3.org/2000/svg" xmlns:xlink="http://www.w3.org/1999/xlink" version="1.0" x="0" y="0" width="2400" height="734.2812278623804" viewBox="73.38485946655274 95.44054641723633 193.23028106689452 59.11890335083008" preserveAspectRatio="xMidYMid meet" color-interpolation-filters="sRGB"><g><defs><linearGradient id="92" x1="0%" y1="0%" x2="100%" y2="0%"><stop offset="0%" stop-color="#fa71cd"></stop> <stop offset="100%" stop-color="#9b59b6"></stop></linearGradient><linearGradient id="93" x1="0%" y1="0%" x2="100%" y2="0%"><stop offset="0%" stop-color="#f9d423"></stop> <stop offset="100%" stop-color="#f83600"></stop></linearGradient><linearGradient id="94" x1="0%" y1="0%" x2="100%" y2="0%"><stop offset="0%" stop-color="#0064d2"></stop> <stop offset="100%" stop-color="#1cb0f6"></stop></linearGradient><linearGradient id="95" x1="0%" y1="0%" x2="100%" y2="0%"><stop offset="0%" stop-color="#f00978"></stop> <stop offset="100%" stop-color="#3f51b1"></stop></linearGradient><linearGradient id="96" x1="0%" y1="0%" x2="100%" y2="0%"><stop offset="0%" stop-color="#7873f5"></stop> <stop offset="100%" stop-color="#ec77ab"></stop></linearGradient><linearGradient id="97" x1="0%" y1="0%" x2="100%" y2="0%"><stop offset="0%" stop-color="#f9d423"></stop> <stop offset="100%" stop-color="#e14fad"></stop></linearGradient><linearGradient id="98" x1="0%" y1="0%" x2="100%" y2="0%"><stop offset="0%" stop-color="#009efd"></stop> <stop offset="100%" stop-color="#2af598"></stop></linearGradient><linearGradient id="99" x1="0%" y1="0%" x2="100%" y2="0%"><stop offset="0%" stop-color="#ffcc00"></stop> <stop offset="100%" stop-color="#00b140"></stop></linearGradient><linearGradient id="100" x1="0%" y1="0%" x2="100%" y2="0%"><stop offset="0%" stop-color="#d51007"></stop> <stop offset="100%" stop-color="#ff8177"></stop></linearGradient><linearGradient id="102" x1="0%" y1="0%" x2="100%" y2="0%"><stop offset="0%" stop-color="#a2b6df"></stop> <stop offset="100%" stop-color="#0c3483"></stop></linearGradient><linearGradient id="103" x1="0%" y1="0%" x2="100%" y2="0%"><stop offset="0%" stop-color="#7ac5d8"></stop> <stop offset="100%" stop-color="#eea2a2"></stop></linearGradient><linearGradient id="104" x1="0%" y1="0%" x2="100%" y2="0%"><stop offset="0%" stop-color="#00ecbc"></stop> <stop offset="100%" stop-color="#007adf"></stop></linearGradient><linearGradient id="105" x1="0%" y1="0%" x2="100%" y2="0%"><stop offset="0%" stop-color="#b88746"></stop> <stop offset="100%" stop-color="#fdf5a6"></stop></linearGradient></defs><g fill="#333333" class="iconlinesvg-g iconlinesvg" transform="translate(75.2792739868164,97.33496284484863)"><g class="tp-name"><g transform="translate(0, 0)"><g><g class="imagesvg"><g><rect fill="#333333" fill-opacity="0" stroke-width="2" x="0" y="0" width="33.988711362035" height="55.330074333026744" class="image-rect"></rect> <svg x="0" y="0" width="33.988711362035" height="55.330074333026744" filtersec="colorsb567785461" class="image-svg-svg primary" style="overflow: visible;"><svg xmlns="http://www.w3.org/2000/svg" viewBox="0 0 8.600000381469727 14"><path d="M7 3.2H2.22a1.6 1.6 0 0 1 0-3.2H7a1.6 1.6 0 1 1 0 3.2z" fill="#1eadef"></path><path d="M1.6 14a1.6 1.6 0 0 1 0-3.2 3.8 3.8 0 0 0 3.76-3.48V1.65a1.6 1.6 0 0 1 3.2 0v5.89a6.93 6.93 0 0 1-2.21 4.55A7 7 0 0 1 1.6 14zm3.76-6.72z" fill="#f1511b"></path></svg></svg> </g></g></g></g><g transform="translate(37, 12.616292705656647)"><g fill="#333333" transform="scale(1)"><path d="M12.50-33.29L33.45-33.29L37.49-3.19L28.34-3.19L27.28-11.38L14.52-11.38L10.95-3.19L2.29-3.19L14.04-31.80L12.50-33.29ZM25.26-28.18L21.70-28.18L16.59-16.48L26.80-16.48L25.26-28.18Z" transform="translate(-2.286558345642541, 33.28803545051699)"></path></g></g><g transform="translate(76, 12.616292705656647)"><g fill="#333333" transform="scale(1)"><path d="M23.08-3.19L8.77-3.19L3.14-31.80L2.13-33.29L12.87-33.29L16.91-12.39L27.12-33.29L37.33-33.29L23.08-3.19Z" transform="translate(-2.127031019202364, 33.28803545051699)"></path></g></g><g transform="translate(115, 12.616292705656647)"><g fill="#333333" transform="scale(1)"><path d="M38.23-33.29L37.22-24.62L27.01-24.62L27.49-28.18L15.26-28.18L12.71-8.30L24.94-8.30L25.47-14.41L22.39-19.52L36.16-19.52L34.14-3.19L5.53-3.19Q4.79-3.19 4.15-3.46Q3.51-3.72 3.06-4.20Q2.61-4.68 2.45-5.34Q2.29-6.01 2.50-6.75L2.50-6.75L6.06-33.29L38.23-33.29Z" transform="translate(-2.3777464918759237, 33.28803545051699)"></path></g></g><g transform="translate(154, 12.616292705656647)"><g fill="#333333" transform="scale(1)"><path d="M6.06-33.29L34.67-33.29Q35.42-33.29 36.05-33.02Q36.69-32.76 37.14-32.28Q37.60-31.80 37.75-31.16Q37.91-30.52 37.70-29.73L37.70-29.73L34.14-3.19L5.53-3.19Q4.79-3.19 4.15-3.46Q3.51-3.72 3.06-4.20Q2.61-4.68 2.45-5.34Q2.29-6.01 2.50-6.75L2.50-6.75L6.06-33.29ZM27.49-28.18L15.26-28.18L12.71-8.30L24.46-8.30L27.49-28.18Z" transform="translate(-2.3777464918759237, 33.28803545051699)"></path></g></g></g> </g><defs v-gra="od"></defs></g></svg>